# xmcd
#
# Track frame offsets:
#	150
#	27606
#	63020
#	86327
#	118519
#	134810
#	223947
#	261879
#	281729
#
# Disc length: 4239 seconds
#
# Revision: 0
# Processed by: cddbd v1.4PL0 Copyright (c) Steve Scherf et al.
# Submitted via: audiograbber 1.81.02
#
DISCID=8b108d09
DTITLE=Grateful Dead - 1973-03-26 - Baltimore Civic Center  Baltimore  MD - Dis
DTITLE=c 2
DYEAR=1900
DGENRE=
TTITLE0=gd73-03 - 26d2t01
TTITLE1=gd73-03 - 26d2t02
TTITLE2=gd73-03 - 26d2t03
TTITLE3=gd73-03 - 26d2t04
TTITLE4=gd73-03 - 26d2t05
TTITLE5=gd73-03 - 26d2t06
TTITLE6=gd73-03 - 26d2t07
TTITLE7=gd73-03 - 26d2t08
TTITLE8=gd73-03 - 26d2t09
EXTD=
EXTT0=
EXTT1=
EXTT2=
EXTT3=
EXTT4=
EXTT5=
EXTT6=
EXTT7=
EXTT8=
PLAYORDER=
